<svg width="480pt" height="290pt" viewBox="0 0 480 290" version="1.1" xmlns="http://www.w3.org/2000/svg" xmlns:xlink="http://www.w3.org/1999/xlink">
  <g id="surface2">
    <path style=" stroke:none;fill-rule:evenodd;fill:rgb(36.470588%,66.27451%,86.666667%);fill-opacity:1;" d="M 248.101562 132.949219 C 247.933594 131.917969 247.949219 130.898438 248.148438 129.898438 C 248.382812 128.867188 248.816406 127.882812 249.449219 126.949219 C 250.082031 126.050781 250.851562 125.332031 251.75 124.800781 C 252.648438 124.234375 253.601562 123.867188 254.601562 123.699219 L 285.699219 118.199219 L 292.601562 157.199219 L 253.601562 164.050781 L 248.101562 132.949219 "/>
    <path style=" stroke:none;fill-rule:evenodd;fill:rgb(0.392157%,24.313725%,48.235294%);fill-opacity:1;" d="M 204.949219 172.648438 L 243.949219 165.800781 L 238.5 134.648438 C 238.300781 133.648438 237.933594 132.699219 237.398438 131.800781 C 236.832031 130.898438 236.101562 130.132812 235.199219 129.5 C 234.265625 128.867188 233.285156 128.433594 232.25 128.199219 C 231.25 128 230.234375 127.984375 229.199219 128.148438 L 198.101562 133.648438 L 204.949219 172.648438 "/>
    <path style=" stroke:none;fill-rule:evenodd;fill:rgb(25.490196%,25.098039%,25.882353%);fill-opacity:1;" d="M 223.851562 109 L 194.101562 114.25 L 187.351562 125.550781 L 227.5 118.5 C 228.535156 118.300781 229.484375 117.933594 230.351562 117.398438 C 231.25 116.832031 232.015625 116.101562 232.648438 115.199219 C 233.285156 114.300781 233.714844 113.332031 233.949219 112.300781 C 234.148438 111.265625 234.167969 110.234375 234 109.199219 L 225.601562 61.300781 L 217.75 74.5 L 223.851562 109 "/>
    <path style=" stroke:none;fill-rule:evenodd;fill:rgb(42.745098%,43.137255%,44.313725%);fill-opacity:1;" d="M 243.648438 107.5 C 243.816406 108.535156 244.183594 109.5 244.75 110.398438 C 245.285156 111.265625 246 112.035156 246.898438 112.699219 C 247.832031 113.332031 248.816406 113.75 249.851562 113.949219 C 250.851562 114.183594 251.867188 114.199219 252.898438 114 L 284 108.550781 L 277.148438 69.550781 L 238.148438 76.398438 L 243.648438 107.5 "/>
  </g>
  <g id="surface4">
    <text style="fill:rgb(1,62,123)" font-family="Helvetica" font-size="50" transform="matrix(1,0,0,1,174.912108,230.5)" ><![CDATA[eXera]]></text>
  </g>
</svg>